<?xml version="1.0" encoding="utf-8"?>
<!-- Generator: Adobe Illustrator 16.0.0, SVG Export Plug-In . SVG Version: 6.00 Build 0)  -->
<!DOCTYPE svg PUBLIC "-//W3C//DTD SVG 1.1//EN" "http://www.w3.org/Graphics/SVG/1.1/DTD/svg11.dtd">
<svg version="1.1" id="Layer_1" xmlns="http://www.w3.org/2000/svg" xmlns:xlink="http://www.w3.org/1999/xlink" x="0px" y="0px"
	 width="665.279px" height="217.29px" viewBox="0 0 665.279 217.29" enable-background="new 0 0 665.279 217.29"
	 xml:space="preserve">
<g>
	<polygon fill="#231F20" points="554.699,75.13 554.699,110.51 549.5,110.51 530.04,85.359 530.04,110.51 523.869,110.51 
		523.869,75.13 529.64,75.13 548.529,99.6 548.529,75.13 	"/>
	<path fill="#231F20" d="M597.04,90.74V105.6c-0.891,0.75-1.86,1.46-2.931,2.13c-1.029,0.681-2.189,1.271-3.42,1.771
		c-1.229,0.491-2.55,0.889-3.97,1.18c-1.41,0.279-2.9,0.42-4.44,0.42c-2.76,0-5.27-0.451-7.529-1.371
		c-2.25-0.939-4.181-2.219-5.79-3.849c-1.61-1.63-2.83-3.54-3.71-5.76c-0.87-2.2-1.32-4.61-1.32-7.2v-0.101
		c0-2.449,0.45-4.79,1.37-7.01c0.899-2.22,2.149-4.18,3.78-5.84c1.63-1.67,3.56-3,5.81-3.96c2.22-1,4.67-1.47,7.34-1.47
		c1.54,0,2.96,0.1,4.21,0.33c1.271,0.21,2.43,0.52,3.521,0.92c1.08,0.399,2.1,0.899,3.05,1.489c0.96,0.591,1.91,1.28,2.8,2.061
		l-3.94,4.689c-0.659-0.56-1.34-1.079-2.06-1.55c-0.7-0.479-1.46-0.88-2.21-1.21c-0.78-0.31-1.63-0.56-2.58-0.75
		c-0.92-0.189-1.939-0.29-3.05-0.29c-1.601,0-3.11,0.36-4.51,1.021c-1.41,0.68-2.62,1.58-3.63,2.72c-1.04,1.13-1.851,2.45-2.44,3.96
		c-0.59,1.54-0.89,3.12-0.89,4.82v0.1c0,1.811,0.3,3.521,0.869,5.05c0.57,1.561,1.37,2.91,2.431,4.021
		c1.069,1.1,2.319,1.979,3.78,2.62c1.47,0.63,3.119,0.97,4.909,0.97c1.7,0,3.261-0.24,4.73-0.74c1.46-0.49,2.71-1.16,3.8-1.96v-6.66
		h-9.05V90.74H597.04z"/>
	<path fill="#231F20" d="M627.159,75.13v23.36c0,2.13-0.279,3.939-0.85,5.5c-0.57,1.539-1.37,2.84-2.43,3.899
		c-1.04,1.04-2.29,1.82-3.73,2.339c-1.45,0.521-3.08,0.781-4.85,0.781c-2.74,0-5-0.541-6.83-1.63c-1.811-1.11-3.33-2.46-4.51-4.09
		l4.109-4.181c1.04,1.32,2.11,2.341,3.221,3.051c1.079,0.729,2.38,1.09,3.89,1.09c1.71,0,3.05-0.55,4.09-1.681
		c1.01-1.14,1.54-2.88,1.54-5.239v-23.2H627.159z"/>
	<g>
		<path fill="#231F20" d="M658.34,0H6.939C3.05,0,0,2.34,0,5.31v206.65c0,3,3.05,5.33,6.939,5.33h651.4
			c3.89,0,6.939-2.33,6.939-5.33V5.31C665.279,2.34,662.229,0,658.34,0z M658.34,212.569H6.939c-1.32,0-2.12-0.539-2.22-0.609
			L4.699,5.45c0.12-0.21,0.92-0.73,2.24-0.73h651.4c1.29,0,2.12,0.521,2.22,0.59l0.021,206.509
			C660.46,212.03,659.63,212.569,658.34,212.569z"/>
	</g>
	<path fill="#231F20" d="M103.545,23.594v73.313L47.759,23.594H23.618v119.063h25.84V66.959l57.652,75.698h22.298V23.594H103.545z"
		/>
	<path fill="#231F20" d="M179.031,119.346v-24.99h56.144V71.044h-56.144V46.905h63.795V23.594h-89.799v119.063h90.652v-23.311
		H179.031z"/>
	<path fill="#231F20" d="M326.96,81.767l39.797-58.173h-29.759l-25.179,38.618l-25.012-38.618h-30.612l39.799,58.505l-41.499,60.558
		h29.762l26.876-40.836l26.714,40.836h30.61L326.96,81.767z"/>
	<path fill="#231F20" d="M372.945,23.594v24.163h36.231v94.9h26.193v-94.9h36.208V23.594H372.945z"/>
	<g>
		<path fill="#231F20" stroke="#231F20" stroke-miterlimit="10" d="M38.486,180.03h10.267v8.717
			c-0.577,0.484-1.223,0.945-1.938,1.381c-0.716,0.428-1.492,0.816-2.33,1.152c-0.84,0.336-1.726,0.609-2.659,0.812
			c-0.937,0.203-1.912,0.305-2.927,0.305c-2.037,0-3.85-0.361-5.444-1.076c-1.594-0.719-2.947-1.688-4.062-2.906
			c-1.114-1.217-1.965-2.639-2.556-4.262c-0.593-1.625-0.888-3.359-0.888-5.201v-0.078c0-1.734,0.302-3.412,0.908-5.035
			c0.604-1.627,1.463-3.055,2.577-4.289c1.113-1.229,2.454-2.219,4.02-2.963c1.566-0.744,3.312-1.117,5.236-1.117
			c1.072,0,2.041,0.088,2.906,0.264c0.867,0.18,1.677,0.414,2.434,0.715c0.757,0.299,1.465,0.662,2.124,1.096
			c0.66,0.436,1.306,0.91,1.938,1.422l0.906-1.055c-0.712-0.598-1.435-1.127-2.161-1.588s-1.501-0.844-2.324-1.158
			c-0.824-0.309-1.703-0.549-2.635-0.711c-0.934-0.166-1.963-0.244-3.088-0.244c-2.169,0-4.129,0.406-5.887,1.219
			c-1.755,0.816-3.252,1.906-4.486,3.275s-2.188,2.941-2.86,4.719c-0.673,1.775-1.008,3.615-1.008,5.51v0.084
			c0,2.004,0.323,3.891,0.969,5.652c0.646,1.764,1.58,3.312,2.803,4.656c1.223,1.342,2.722,2.398,4.495,3.174
			c1.774,0.77,3.799,1.156,6.083,1.156c2.334,0,4.458-0.42,6.368-1.258c1.912-0.84,3.54-1.873,4.888-3.092v-10.617H38.486V180.03z"
			/>
		<polygon fill="#231F20" stroke="#231F20" stroke-miterlimit="10" points="64.38,179.463 81.489,179.463 81.489,178.2 64.38,178.2 
			64.38,165.958 83.305,165.958 83.305,164.7 62.978,164.7 62.978,193.167 83.51,193.167 83.51,191.907 64.38,191.907 		"/>
		<polygon fill="#231F20" stroke="#231F20" stroke-miterlimit="10" points="117.691,190.809 96.618,164.7 95.343,164.7 
			95.343,193.167 96.745,193.167 96.745,166.854 117.981,193.167 119.094,193.167 119.094,164.7 117.691,164.7 		"/>
		<polygon fill="#231F20" stroke="#231F20" stroke-miterlimit="10" points="134.02,179.463 151.131,179.463 151.131,178.2 
			134.02,178.2 134.02,165.958 152.944,165.958 152.944,164.7 132.616,164.7 132.616,193.167 153.152,193.167 153.152,191.907 
			134.02,191.907 		"/>
		<path fill="#231F20" stroke="#231F20" stroke-miterlimit="10" d="M178.183,180.85c1.321-0.119,2.528-0.379,3.635-0.779
			c1.112-0.402,2.081-0.943,2.906-1.629c0.803-0.686,1.417-1.488,1.866-2.434c0.45-0.945,0.662-2.033,0.662-3.213V172.7
			c0-1.037-0.189-2.029-0.567-2.926c-0.355-0.875-0.872-1.678-1.536-2.34c-0.872-0.873-2.007-1.559-3.4-2.031
			c-1.393-0.473-2.998-0.709-4.841-0.709h-11.928v28.461h1.417v-12.139h10.227l9.402,12.139h1.771L178.183,180.85z M176.529,179.741
			h-10.133v-13.793h10.416c2.857,0,5.079,0.613,6.661,1.816c1.583,1.205,2.385,2.881,2.385,5.031v0.07
			c0,1.016-0.212,1.938-0.636,2.764c-0.404,0.852-1.018,1.582-1.797,2.174c-0.803,0.613-1.771,1.086-2.928,1.441
			C179.341,179.575,178.017,179.741,176.529,179.741z"/>
		<path fill="#231F20" stroke="#231F20" stroke-miterlimit="10" d="M212.146,164.504h-1.321l-13.678,28.65h1.441l3.97-8.289h17.829
			l3.921,8.289h1.537L212.146,164.504z M203.172,183.612l8.29-17.502l8.312,17.502H203.172z"/>
		<polygon fill="#231F20" stroke="#231F20" stroke-miterlimit="10" points="234.006,165.958 244.272,165.958 244.272,193.167 
			245.675,193.167 245.675,165.958 255.982,165.958 255.982,164.7 234.006,164.7 		"/>
		<rect x="267.031" y="164.7" fill="#231F20" stroke="#231F20" stroke-miterlimit="10" width="1.402" height="28.467"/>
		<path fill="#231F20" stroke="#231F20" stroke-miterlimit="10" d="M308.771,173.317c-0.66-1.748-1.629-3.332-2.904-4.678
			c-1.252-1.348-2.786-2.434-4.558-3.236s-3.731-1.205-5.904-1.205c-2.198,0-4.182,0.402-5.953,1.205s-3.282,1.889-4.535,3.236
			c-1.25,1.346-2.219,2.93-2.904,4.678c-0.708,1.771-1.04,3.611-1.04,5.572v0.094c0,1.938,0.332,3.805,1.015,5.553
			c0.665,1.771,1.631,3.328,2.906,4.676c1.253,1.369,2.764,2.455,4.535,3.236c1.748,0.803,3.732,1.203,5.928,1.203
			c2.173,0,4.156-0.4,5.953-1.203c1.771-0.781,3.282-1.867,4.535-3.236c1.252-1.348,2.221-2.904,2.903-4.676
			c0.711-1.748,1.041-3.615,1.041-5.553c0.048-0.07,0.048-0.094,0-0.094C309.788,176.928,309.458,175.088,308.771,173.317z
			 M308.395,179.006c0,1.797-0.33,3.496-0.969,5.127c-0.613,1.629-1.511,3.045-2.646,4.275c-1.109,1.227-2.479,2.195-4.062,2.904
			c-1.583,0.732-3.354,1.088-5.267,1.088c-1.938,0-3.709-0.379-5.314-1.111c-1.582-0.732-2.978-1.701-4.133-2.953
			c-1.158-1.227-2.058-2.645-2.694-4.273c-0.613-1.631-0.945-3.354-0.945-5.125v-0.096c0-1.771,0.332-3.496,0.945-5.125
			c0.637-1.607,1.536-3.047,2.646-4.252c1.133-1.229,2.503-2.197,4.108-2.928c1.607-0.709,3.354-1.064,5.291-1.064
			s3.709,0.355,5.291,1.088c1.605,0.73,2.976,1.723,4.11,2.951c1.158,1.229,2.056,2.67,2.669,4.301
			c0.639,1.627,0.969,3.328,0.969,5.125V179.006z"/>
		<polygon fill="#231F20" stroke="#231F20" stroke-miterlimit="10" points="344.384,190.809 323.311,164.7 322.035,164.7 
			322.035,193.167 323.438,193.167 323.438,166.854 344.674,193.167 345.784,193.167 345.784,164.7 344.384,164.7 		"/>
		<path fill="#231F20" stroke="#231F20" stroke-miterlimit="10" d="M390.459,183.733c0,1.463-0.187,2.73-0.558,3.801
			s-0.872,1.965-1.504,2.686c-0.632,0.719-1.382,1.254-2.247,1.605c-0.867,0.355-1.794,0.529-2.783,0.529
			c-1.705,0-3.17-0.428-4.393-1.281c-1.222-0.854-2.205-2.082-2.947-3.682l-1.195,0.65c0.796,1.711,1.91,3.068,3.34,4.068
			c1.429,1.006,3.133,1.504,5.111,1.504c2.337,0,4.302-0.756,5.898-2.273c0.823-0.846,1.477-1.9,1.958-3.174
			c0.479-1.273,0.72-2.811,0.72-4.596V164.7h-1.4V183.733z"/>
		<path fill="#231F20" stroke="#231F20" stroke-miterlimit="10" d="M417.443,164.813h-1.321l-13.678,28.674h1.441l3.946-8.291
			h17.854l3.921,8.291h1.536L417.443,164.813z M408.469,183.946l8.29-17.504l8.312,17.504H408.469z"/>
		<polygon fill="#231F20" stroke="#231F20" stroke-miterlimit="10" points="468.695,164.7 456.53,182.026 444.326,164.7 
			443.007,164.7 443.007,193.167 444.409,193.167 444.409,167.096 456.471,184.18 456.554,184.18 468.612,167.096 468.612,193.167 
			470.015,193.167 470.015,164.7 		"/>
	</g>
	<polygon fill="#231F20" points="632.199,174.241 632.199,179.1 628.17,179.1 	"/>
	<path fill="#231F20" d="M610.26,177.491v0.029c0,0.609-0.08,1.18-0.22,1.709c-0.15,0.531-0.36,0.99-0.62,1.381
		c-0.271,0.4-0.601,0.709-0.98,0.93c-0.38,0.23-0.81,0.35-1.29,0.35c-0.47,0-0.91-0.119-1.29-0.359
		c-0.39-0.23-0.72-0.539-0.99-0.939c-0.279-0.4-0.489-0.861-0.63-1.4c-0.149-0.529-0.22-1.1-0.22-1.699v-0.041
		c0-0.609,0.07-1.18,0.22-1.709c0.141-0.531,0.351-0.99,0.62-1.381c0.271-0.391,0.59-0.699,0.971-0.93
		c0.38-0.23,0.81-0.34,1.289-0.34c0.471,0,0.9,0.109,1.29,0.35c0.391,0.23,0.721,0.551,0.99,0.939c0.271,0.4,0.48,0.871,0.63,1.4
		C610.18,176.309,610.26,176.879,610.26,177.491z"/>
	<path fill="#231F20" d="M569.449,177.491v0.029c0,0.6-0.109,1.15-0.31,1.66c-0.21,0.51-0.49,0.949-0.86,1.32
		c-0.37,0.369-0.819,0.66-1.34,0.869c-0.53,0.199-1.109,0.301-1.75,0.301h-2.42v-8.371h2.42c0.641,0,1.22,0.1,1.75,0.311
		c0.521,0.209,0.97,0.51,1.34,0.869c0.37,0.371,0.65,0.82,0.86,1.33C569.34,176.331,569.449,176.889,569.449,177.491z"/>
	<path fill="#231F20" d="M658.34,0H491.819v217.29H658.34c3.89,0,6.939-2.33,6.939-5.33V5.31C665.279,2.34,662.229,0,658.34,0z
		 M626.01,180.87l-0.4-1.539l6.82-8.07h1.84v7.84h1.75v1.77h-1.75v2.75h-2.07v-2.75H626.01z M578.529,158.581
		c-36.05,0-65.239-29.221-65.239-65.241c0-36.04,29.189-65.26,65.239-65.26c36.04,0,65.261,29.22,65.261,65.26
		C643.79,129.36,614.569,158.581,578.529,158.581z M616.67,174.069l-0.45-1.76l3.29-1.049h1.51v12.359h-2.14v-10.17L616.67,174.069z
		 M612.479,177.45v0.041c0,0.869-0.13,1.699-0.38,2.469c-0.26,0.77-0.62,1.439-1.09,2.01c-0.47,0.58-1.03,1.031-1.69,1.361
		s-1.39,0.5-2.2,0.5c-0.81,0-1.539-0.16-2.189-0.49c-0.66-0.33-1.22-0.781-1.68-1.35c-0.471-0.57-0.83-1.24-1.08-2.012
		c-0.25-0.76-0.38-1.58-0.38-2.459v-0.029c0-0.881,0.13-1.701,0.39-2.48c0.25-0.77,0.62-1.441,1.08-2.01
		c0.47-0.57,1.03-1.031,1.689-1.361c0.66-0.33,1.4-0.5,2.2-0.5c0.811,0,1.54,0.16,2.2,0.49c0.65,0.33,1.21,0.781,1.67,1.35
		c0.46,0.57,0.82,1.24,1.08,2.012C612.35,175.75,612.479,176.569,612.479,177.45z M594.58,173.62c-0.381-0.33-0.851-0.5-1.41-0.5
		c-0.561,0-1.061,0.15-1.48,0.461c-0.43,0.299-0.88,0.76-1.359,1.379l-1.53-1.189c0.29-0.41,0.59-0.779,0.899-1.1
		c0.301-0.32,0.631-0.602,0.99-0.811c0.351-0.221,0.74-0.391,1.17-0.51c0.431-0.121,0.91-0.17,1.46-0.17
		c0.601,0,1.15,0.08,1.641,0.26c0.5,0.17,0.93,0.42,1.279,0.74c0.36,0.32,0.641,0.709,0.841,1.16c0.189,0.449,0.289,0.949,0.289,1.5
		v0.029c0,0.48-0.06,0.92-0.189,1.311c-0.13,0.389-0.32,0.77-0.59,1.129c-0.26,0.361-0.59,0.73-1,1.102
		c-0.4,0.359-0.87,0.77-1.41,1.209l-2.521,2.109h5.841v1.891h-8.87v-1.699l4.22-3.58c0.42-0.35,0.78-0.67,1.07-0.961
		c0.29-0.279,0.529-0.549,0.71-0.811c0.18-0.26,0.31-0.51,0.39-0.75c0.09-0.25,0.13-0.51,0.13-0.789
		C595.149,174.42,594.96,173.95,594.58,173.62z M571.72,177.45v0.041c0,0.859-0.15,1.67-0.47,2.408
		c-0.32,0.75-0.761,1.4-1.341,1.951c-0.579,0.549-1.27,0.98-2.069,1.299c-0.8,0.311-1.681,0.471-2.641,0.471h-4.569v-12.27h4.569
		c0.96,0,1.841,0.16,2.641,0.469c0.8,0.301,1.49,0.73,2.069,1.281c0.58,0.549,1.021,1.199,1.341,1.939
		C571.569,175.78,571.72,176.59,571.72,177.45z M546.119,173.35v-2h9.95v2h-3.89v10.27h-2.17v-10.27H546.119z M539.92,179.719
		c-0.08-0.17-0.221-0.33-0.42-0.479c-0.21-0.15-0.49-0.291-0.851-0.422c-0.35-0.129-0.819-0.26-1.39-0.389
		c-0.66-0.15-1.24-0.32-1.75-0.51c-0.51-0.201-0.94-0.43-1.28-0.711c-0.35-0.27-0.61-0.609-0.8-1c-0.18-0.4-0.271-0.879-0.271-1.439
		v-0.041c0-0.52,0.11-1,0.32-1.439c0.2-0.439,0.49-0.811,0.86-1.119c0.359-0.311,0.8-0.561,1.31-0.73
		c0.521-0.18,1.08-0.26,1.681-0.26c0.899,0,1.71,0.129,2.43,0.389c0.72,0.262,1.399,0.65,2.03,1.15l-1.16,1.631
		c-0.561-0.41-1.12-0.721-1.67-0.939c-0.54-0.221-1.101-0.32-1.66-0.32c-0.63,0-1.12,0.139-1.47,0.42
		c-0.351,0.279-0.53,0.619-0.53,1.029v0.041c0,0.229,0.04,0.439,0.12,0.619c0.09,0.18,0.239,0.34,0.449,0.49
		c0.221,0.15,0.521,0.279,0.9,0.41c0.38,0.129,0.86,0.26,1.45,0.4c0.64,0.17,1.21,0.35,1.71,0.549c0.5,0.201,0.91,0.441,1.24,0.721
		c0.33,0.289,0.58,0.619,0.75,1c0.17,0.379,0.25,0.83,0.25,1.33v0.029c0,0.58-0.11,1.09-0.32,1.541c-0.21,0.459-0.51,0.85-0.89,1.16
		c-0.391,0.318-0.851,0.559-1.38,0.719c-0.54,0.16-1.131,0.25-1.771,0.25c-0.95,0-1.85-0.16-2.72-0.49
		c-0.86-0.318-1.66-0.809-2.4-1.479l1.3-1.541c0.591,0.51,1.19,0.91,1.801,1.18c0.609,0.281,1.3,0.42,2.069,0.42
		c0.67,0,1.2-0.139,1.59-0.43c0.391-0.279,0.58-0.65,0.58-1.119v-0.031C540.029,180.09,540,179.889,539.92,179.719z M527.76,176.45
		v1.949h-6.15v3.271h7.03v1.949h-9.17v-12.27h9.08v1.949h-6.94v3.15H527.76z"/>
</g>
</svg>
